HIERARCHY
ROOT Hips
{
	OFFSET	0.00	0.00	0.00
	CHANNELS 6 Xposition Yposition Zposition Zrotation Xrotation Yrotation
	JOINT LeftUpLeg
	{
		OFFSET	 0.126116	-0.065224	 0.014019
		CHANNELS 3 Zrotation Xrotation Yrotation
		JOINT LeftLeg
		{
			OFFSET	 0.000000	 0.569914	 0.000000
			CHANNELS 3 Zrotation Xrotation Yrotation
			JOINT LeftFoot
			{
				OFFSET	 0.000000	 0.544423	 0.000000
				CHANNELS 3 Zrotation Xrotation Yrotation
				JOINT LeftToeBase
				{
					OFFSET	 0.000000	 0.207117	 0.000000
					CHANNELS 3 Zrotation Xrotation Yrotation
					End Site
					{
						OFFSET	 0.000000	 0.207117	 0.000000
					}
				}
			}
		}
	}
	JOINT RightUpLeg
	{
		OFFSET	-0.124023	-0.065224	 0.008373
		CHANNELS 3 Zrotation Xrotation Yrotation
		JOINT RightLeg
		{
			OFFSET	 0.000000	 0.570047	 0.000000
			CHANNELS 3 Zrotation Xrotation Yrotation
			JOINT RightFoot
			{
				OFFSET	 0.000000	 0.544354	 0.000000
				CHANNELS 3 Zrotation Xrotation Yrotation
				JOINT RightToeBase
				{
					OFFSET	 0.000000	 0.207540	 0.000000
					CHANNELS 3 Zrotation Xrotation Yrotation
					End Site
					{
						OFFSET	 0.000000	 0.207540	 0.000000
					}
				}
			}
		}
	}
	JOINT Spine
	{
		OFFSET	 0.000184	 0.117403	 0.007763
		CHANNELS 3 Zrotation Xrotation Yrotation
		JOINT Spine1
		{
			OFFSET	 0.000000	 0.137269	 0.000000
			CHANNELS 3 Zrotation Xrotation Yrotation
			JOINT Spine2
			{
				OFFSET	 0.000000	 0.156879	 0.000000
				CHANNELS 3 Zrotation Xrotation Yrotation
				JOINT LeftShoulder
				{
					OFFSET	 0.080501	 0.160143	 0.002496
					CHANNELS 3 Zrotation Xrotation Yrotation
					JOINT LeftArm
					{
						OFFSET	 0.000000	 0.164363	 0.000000
						CHANNELS 3 Zrotation Xrotation Yrotation
						JOINT LeftForeArm
						{
							OFFSET	 0.000000	 0.364576	 0.000000
							CHANNELS 3 Zrotation Xrotation Yrotation
							JOINT LeftHand
							{
								OFFSET	 0.000000	 0.360812	 0.000000
								CHANNELS 3 Zrotation Xrotation Yrotation
								JOINT LeftHandIndex1
								{
									OFFSET	 0.000000	 0.086006	 0.000000
									CHANNELS 3 Zrotation Xrotation Yrotation
									JOINT LeftHandIndex2
									{
										OFFSET	 0.000000	 0.047237	 0.000000
										CHANNELS 3 Zrotation Xrotation Yrotation
										JOINT LeftHandIndex3
										{
											OFFSET	-0.004284	 0.038165	 0.000551
											CHANNELS 3 Zrotation Xrotation Yrotation
											End Site
											{
												OFFSET	-0.004284	 0.038165	 0.000551
											}
										}
									}
								}
							}
						}
					}
				}
				JOINT Neck
				{
					OFFSET	 0.000000	 0.176489	 0.000000
					CHANNELS 3 Zrotation Xrotation Yrotation
					JOINT Head
					{
						OFFSET	 0.000000	 0.077941	 0.001747
						CHANNELS 3 Zrotation Xrotation Yrotation
						End Site
						{
							OFFSET	 0.000000	 0.077941	 0.001747
						}
					}
				}
				JOINT RightShoulder
				{
					OFFSET	-0.080363	 0.159706	-0.000306
					CHANNELS 3 Zrotation Xrotation Yrotation
					JOINT RightArm
					{
						OFFSET	 0.000000	 0.164196	 0.000000
						CHANNELS 3 Zrotation Xrotation Yrotation
						JOINT RightForeArm
						{
							OFFSET	 0.000000	 0.365611	 0.000000
							CHANNELS 3 Zrotation Xrotation Yrotation
							JOINT RightHand
							{
								OFFSET	 0.000000	 0.360648	 0.000000
								CHANNELS 3 Zrotation Xrotation Yrotation
								JOINT RightHandIndex1
								{
									OFFSET	 0.000000	 0.069977	 0.000000
									CHANNELS 3 Zrotation Xrotation Yrotation
									JOINT RightHandIndex2
									{
										OFFSET	 0.000000	 0.052305	 0.000000
										CHANNELS 3 Zrotation Xrotation Yrotation
										JOINT RightHandIndex3
										{
											OFFSET	 0.009002	 0.042196	 0.000782
											CHANNELS 3 Zrotation Xrotation Yrotation
											End Site
											{
												OFFSET	 0.009002	 0.042196	 0.000782
											}
										}
									}
								}
							}
						}
					}
				}
			}
		}
	}
}
MOTION
Frames:    4
Frame Time: 0.03333334
-0.047445	 1.214376	-3.385553	-3.756287	 2.437636	-177.350600	 164.590400	 19.240000	 9.943804	 4.759139	-32.044400	 1.050467	-13.598210	 68.482880	 20.562970	 1.383109	 29.606240	-2.752611	-172.626500	 8.888364	-12.380970	-10.586120	-67.740840	-1.541831	-10.878920	 66.384520	 10.199140	-1.632237	 32.624310	 3.362787	-3.209558	 8.876075	 1.818666	-0.038072	 2.749896	 0.603817	-0.444452	-3.443608	 0.114554	-121.939200	 5.845808	 93.290030	 0.338966	 54.529280	 6.247848	 4.988220	-0.257798	-0.072602	 6.752532	-3.969350	 19.583170	 4.552440	 20.190240	-1.711760	-5.861862	 22.485920	 2.486064	 5.371710	 5.283471	-0.152236	-0.169902	-4.976019	-0.347530	-2.647954	-1.541822	-3.547445	 118.959300	 0.467760	-91.070300	-3.675267	 49.503900	-5.130750	-20.213770	-0.778912	-0.080202	-1.127139	 1.290954	-8.924824	-2.697846	 27.210170	 1.465603	 16.308630	 46.633630	-12.527240	-8.524712	 24.922520	-1.290147
-0.046590	 1.228323	-3.544138	-3.309515	 1.345925	-174.610100	 165.180700	 10.989450	 11.785840	 4.534599	-30.815220	 4.172809	-3.253420	 75.417470	 10.920100	 1.483747	 30.883800	-2.798327	-174.726200	 26.814360	-12.038170	-8.869240	-63.619730	 1.781175	 7.278522	 75.267680	-3.134945	-1.721104	 33.526400	 3.798219	-1.888980	 8.389948	-1.641992	 0.133862	 3.081771	-0.308656	-0.313804	-3.607919	-0.491327	-121.639100	 7.151692	 93.922580	 3.920268	 51.585550	 7.576503	 26.047910	-1.301703	 0.217289	 4.324117	-11.873580	 11.435700	 4.677061	 19.507310	-1.712257	-5.862554	 22.018790	 2.434238	 5.346626	 4.693879	-0.162657	-0.175750	-4.854676	-0.087322	-2.265560	-1.953921	-3.299644	 118.562600	-0.145203	-90.770320	 10.209240	 52.875340	-14.104920	-19.080550	-0.736944	-0.065355	 0.406578	 2.104542	-13.001120	-2.346760	 25.322540	 1.283125	 15.759460	 44.612310	-11.696700	-8.531879	 23.162260	-1.172585
-0.043047	 1.221581	-3.760281	-3.213312	-0.740476	-172.019500	 167.337400	-1.224475	 13.364180	 3.528660	-24.907790	 7.530311	 24.959640	 81.334560	-16.206940	 1.584979	 32.136890	-2.846356	 175.151800	 36.327740	-2.129538	-2.586961	-30.974780	 10.614080	 26.707060	 67.045490	-16.308770	-1.661748	 33.041380	 2.954011	-1.098817	 7.255157	-4.780833	 0.364886	 4.080906	-1.304840	-0.358824	-4.450591	-1.205749	-121.363400	 9.057240	 94.850810	 31.809020	 40.956040	-7.409035	 25.956660	-1.297452	 0.215178	 6.788002	-16.518860	 4.839091	 4.689260	 19.681180	-1.726507	-5.862495	 22.048970	 2.437579	 5.349283	 4.756443	-0.161529	-0.176202	-4.862599	 0.166869	-1.699400	-2.701271	-3.351684	 118.102000	-0.964132	-90.379330	 20.942220	 55.079630	-20.121780	-11.986370	-0.468157	 0.009356	-2.093284	 2.958279	-16.996560	-1.795314	 21.468510	 1.016259	 14.833150	 40.577420	-10.198040	-8.534204	 19.468630	-0.931116
-0.030496	 1.186841	-3.970778	-2.757482	-0.979504	-171.175900	 170.054900	-11.182520	 13.243650	 3.691049	-25.905360	 5.769118	 23.293940	 83.814300	-12.979280	 2.703235	 43.909130	-3.492773	 175.449000	 37.761340	-3.022958	-1.383069	-17.796270	 10.450150	 22.324970	 63.122540	-10.380450	-1.791805	 34.587950	 2.949223	-0.231907	 6.771000	-7.504409	 0.833456	 4.416001	-2.130303	-0.424603	-4.788365	-1.275420	-121.156900	 9.473255	 95.037560	 39.946880	 35.820540	-13.489640	 24.573440	-1.232747	 0.184642	 7.713505	-19.483840	 2.719399	 4.955041	 20.230220	-1.853334	-5.861618	 22.972920	 2.540258	 5.402629	 6.013315	-0.139651	-0.151164	-5.023119	 0.267394	-1.414708	-2.836780	-2.636251	 118.271100	-1.499357	-90.138050	 22.793790	 54.714560	-18.050770	-5.113690	-0.200963	 0.049514	-2.586709	 0.789204	-23.920060	-1.499787	 14.814430	 0.889351	 13.732520	 34.212140	-8.159636	-8.500758	 13.113340	-0.526201
